<svg width="64" height="2023" xmlns="http://www.w3.org/2000/svg" xmlns:xlink="http://www.w3.org/1999/xlink"><defs><path id="a" d="M0 0h29.6v32H0z"/><path id="c" d="M0 0h29.6v32H0z"/></defs><g transform="translate(12 24)" fill="none" fill-rule="evenodd"><g transform="translate(4)"><mask id="b" fill="#fff"><use xlink:href="#a"/></mask><g mask="url(#b)" fill-rule="nonzero" stroke-width=".3"><path d="M22.91 26.546V13.834l2.217 2.089.31-.387-2.528-2.372h-.024L14.8 5.454l-8.085 7.684H6.69l-2.529 2.424.31.386 2.219-2.114v12.712h16.22zm-.478-13.15V26.03H7.168V13.396L14.8 6.124l7.632 7.272z" stroke="#303030" fill="#303030"/><path d="M12.722 21.688v.731h4.167v-.731h2.998v-2.016a2.097 2.097 0 0 0-.75-1.64c.376-.645.26-1.491-.276-1.989a1.346 1.346 0 0 0-1.86 0c-.535.498-.652 1.344-.276 1.99a2 2 0 0 0-.293.316 2.073 2.073 0 0 0-.347-.336c.414-.686.297-1.596-.274-2.134a1.432 1.432 0 0 0-1.992 0c-.572.538-.689 1.448-.275 2.134a2.1 2.1 0 0 0-.329.355 2.004 2.004 0 0 0-.292-.316c.376-.645.259-1.491-.276-1.99a1.346 1.346 0 0 0-1.86 0c-.535.499-.653 1.345-.277 1.99a2.1 2.1 0 0 0-.75 1.62v2.016h2.962zm5.21-5.592c.585 0 1.06.513 1.06 1.146 0 .633-.475 1.146-1.06 1.146-.586 0-1.061-.513-1.061-1.146 0-.633.475-1.146 1.06-1.146h.001zm-.988 2.253c.55.56 1.407.56 1.956 0 .39.308.621.8.621 1.323v1.62H16.89v-1.54a2.31 2.31 0 0 0-.256-1.068c.089-.127.193-.24.311-.335h-.001zm-2.138-2.45c.465 0 .885.303 1.063.768.179.465.08 1-.25 1.356a1.09 1.09 0 0 1-1.254.27c-.43-.192-.71-.646-.71-1.15 0-.687.515-1.245 1.15-1.245l.001.001zm-1.042 2.41a1.42 1.42 0 0 0 2.083 0c.427.336.678.872.677 1.442v2.273h-3.437V19.75c-.001-.57.25-1.106.677-1.442v.001zm-2.084-2.213c.586 0 1.06.513 1.06 1.146 0 .633-.474 1.146-1.06 1.146-.585 0-1.06-.513-1.06-1.146 0-.633.475-1.146 1.06-1.146zm-1.59 3.576a1.707 1.707 0 0 1 .621-1.323c.55.56 1.407.56 1.956 0 .118.095.222.208.31.335-.165.32-.253.68-.255 1.048v1.541H10.09v-1.601z" stroke="#D8232A" fill="#D8232A"/></g></g><g transform="translate(4 56)"><mask id="d" fill="#fff"><use xlink:href="#c"/></mask><g mask="url(#d)" fill-rule="nonzero"><path d="M7.485 6.42c-1.38 0-2.506 1.22-2.505 2.711 0 1.49 1.126 2.704 2.505 2.705 1.378 0 2.504-1.215 2.504-2.705.001-1.49-1.125-2.71-2.504-2.71V6.42zm13.198.003c-1.379 0-2.505 1.214-2.505 2.705 0 1.49 1.126 2.708 2.505 2.708s2.502-1.217 2.502-2.708c0-1.49-1.123-2.705-2.502-2.705zm-13.198.79c.982.001 1.771.856 1.77 1.918 0 1.062-.788 1.911-1.77 1.911s-1.771-.85-1.771-1.911c0-1.062.788-1.917 1.77-1.917l.001-.001zm13.198 0c.982 0 1.771.853 1.771 1.915s-.789 1.914-1.77 1.914c-.983 0-1.772-.852-1.772-1.914 0-1.062.789-1.914 1.771-1.914v-.001zM7.485 12.947c-1.835 0-3.323 1.608-3.323 3.591v3.293c0 .22.163.398.366.398h.826v4.96c0 .106.038.207.107.282.07.075.163.116.261.116h3.526c.1 0 .193-.043.26-.116a.414.414 0 0 0 .108-.282v-4.96h.826c.203 0 .366-.179.366-.398v-3.293c0-1.983-1.489-3.591-3.323-3.591zm13.19 0c-.897.015-1.639.45-2.18 1.097-.541.646-.9 1.493-1.124 2.392l-1.432 5.76a.422.422 0 0 0 .061.345.358.358 0 0 0 .29.157h2.262v2.49c-.001.22.162.398.365.399h3.529c.202 0 .366-.18.365-.398v-2.491h2.259a.358.358 0 0 0 .292-.156c.07-.1.093-.226.063-.345l-1.433-5.761c-.223-.894-.566-1.753-1.102-2.409-.536-.656-1.291-1.096-2.216-1.08h.001zm-13.19.793c1.44 0 2.589 1.24 2.589 2.798v2.898h-.826c-.202.001-.365.178-.366.395v4.963H6.088V19.83c-.001-.218-.164-.394-.366-.395h-.826v-2.898c0-1.558 1.148-2.799 2.589-2.799v.002zm13.203 0c.713-.012 1.226.292 1.652.814.426.521.74 1.271.942 2.087l1.31 5.263h-2.146c-.1 0-.194.042-.261.116a.414.414 0 0 0-.108.282v2.492h-2.791V22.3a.414.414 0 0 0-.107-.282.353.353 0 0 0-.261-.116H16.77l1.31-5.263c.203-.811.526-1.547.96-2.064.433-.518.957-.826 1.648-.837v.002z" fill="#303030"/><path d="M13.361 6.414a.355.355 0 0 0-.258.121.415.415 0 0 0-.102.283v18.37c.004.215.167.387.366.387.2 0 .363-.172.367-.388V6.817a.414.414 0 0 0-.107-.287.354.354 0 0 0-.266-.116z" fill="#D8232A"/></g></g><path d="M4 672h29.6v32H4z"/><path d="m15.611 699.591.644-5.472.092-.772-.381.392h5.549c-.122-.094-.244-.192-.366-.286l.743 5.476.103.768c.122-.165.244-.33.366-.498H15.23c-.492 0-.492.784 0 .784h7.131c.274 0 .4-.25.366-.498l-.743-5.476-.103-.768c-.023-.169-.217-.286-.366-.286h-5.549c-.225 0-.355.18-.381.392l-.645 5.472-.091.772c-.023.212.194.392.381.392.225 0 .355-.18.381-.392zm.915-9.247c.057-.753.114-1.505.175-2.262.092-1.203.183-2.406.278-3.61.023-.278.042-.556.065-.839l-.38.392h3.974l-.38-.392c.072.765.148 1.533.22 2.297.118 1.204.233 2.407.35 3.614.028.27.066.541.077.812l.381-.392h-5.141l.381.392c-.004 0 0-.004 0-.012.019-.506-.743-.502-.762 0v.016c0 .212.168.385.38.392h5.142c.198 0 .389-.18.381-.392-.03-.745-.144-1.498-.217-2.238-.118-1.212-.236-2.423-.35-3.634-.027-.282-.054-.569-.084-.85-.02-.212-.157-.393-.381-.393h-3.976c-.217 0-.366.18-.38.392-.058.753-.115 1.505-.176 2.262-.092 1.203-.183 2.407-.278 3.61-.023.278-.042.557-.065.839-.015.212.187.392.381.392.221-.004.366-.184.385-.396zm.744-15.542h2.595l-.381-.392c.16 1.823.316 3.645.476 5.464l.069.78.38-.392h-3.567l.381.392.378-5.464c.019-.259.034-.521.053-.78.015-.212-.187-.392-.381-.392-.217 0-.366.18-.381.392l-.377 5.464c-.02.259-.035.521-.054.78-.015.212.187.392.381.392h3.568c.19 0 .4-.18.38-.392-.16-1.823-.316-3.645-.476-5.464l-.068-.78c-.02-.212-.16-.392-.381-.392h-2.596c-.491 0-.491.784 0 .784h.001z" fill="#D8232A" fill-rule="nonzero"/><path d="m27.407 674.5 3.707 24.203a.74.74 0 0 1-.124.518.64.64 0 0 1-.4.267l-23.463.012a.622.622 0 0 1-.458-.205.725.725 0 0 1-.19-.465l3.073-23.727 17.855-.603z" stroke="#303030"/><path d="M4 728h29.6v32H4z"/><g fill-rule="nonzero"><path d="M29.622 753.89h-1.196v-13.925h.507c.153 0 .277-.134.277-.3v-1.503c0-.166-.124-.3-.277-.3h-9.3v-1.959h.435c.154 0 .278-.134.278-.3V734.1c0-.166-.124-.3-.278-.3h-1.394v-1.5c0-.166-.124-.3-.277-.3H16.5c-.154 0-.278.134-.278.3v1.5H12.61v-1.5c0-.166-.125-.3-.278-.3h-1.896c-.154 0-.278.134-.278.3v1.5H8.764c-.153 0-.277.134-.277.3v1.503c0 .166.124.3.277.3h.41v17.986H7.977c-.153 0-.277.134-.277.3v1.511c0 .166.124.3.277.3h21.646c.153 0 .277-.134.277-.3v-1.51c0-.167-.124-.3-.278-.3zm-1.752 0h-8.238v-13.925h8.239v13.924l-.001.001zm.785-15.428v.903h-9.023v-.903h9.023zM16.778 732.6h1.341v1.2h-1.34v-1.2h-.001zm-6.065 0h1.342v1.2h-1.342v-1.2zm-1.671 1.8h10.749v.903H9.042v-.903zm.687 1.503h9.348v17.986H9.73v-17.986h-.001zM29.345 755.4H8.255v-.91h21.09v.91z" fill="#000"/><path fill="#D8232A" d="M29.345 755.4H8.255v-.91h21.09z"/><path d="M24.78 751.725h1.764c.153 0 .277-.134.277-.3v-3.16c0-.165-.124-.3-.277-.3H24.78c-.154 0-.278.135-.278.3v3.16c0 .166.124.3.278.3zm.278-3.16h1.208v2.56h-1.208v-2.56zm-4.021 3.16H22.8c.154 0 .278-.134.278-.3v-3.16c0-.165-.124-.3-.278-.3h-1.763c-.153 0-.277.135-.277.3v3.16c0 .166.124.3.277.3zm.278-3.16h1.208v2.56h-1.208v-2.56zm3.465-2.032h1.764c.153 0 .277-.134.277-.3v-3.16c0-.165-.124-.3-.277-.3H24.78c-.154 0-.278.135-.278.3v3.16c0 .166.124.3.278.3zm.278-3.16h1.208v2.56h-1.208v-2.56zm-4.021 3.16H22.8c.154 0 .278-.134.278-.3v-3.16c0-.165-.124-.3-.278-.3h-1.763c-.153 0-.277.135-.277.3v3.16c0 .166.124.3.277.3zm.278-3.16h1.208v2.56h-1.208v-2.56zm-3.99-.613h-1.763c-.153 0-.277.134-.277.3v3.16c0 .165.124.3.277.3h1.763c.154 0 .278-.135.278-.3v-3.16c0-.166-.124-.3-.278-.3zm-.277 3.16H15.84v-2.56h1.208v2.56zm.277-8.352h-1.763c-.153 0-.277.134-.277.3v3.16c0 .166.124.3.277.3h1.763c.154 0 .278-.134.278-.3v-3.16c0-.166-.124-.3-.278-.3zm-.277 3.16H15.84v-2.56h1.208v2.56zm-3.778 2.032h-1.763c-.153 0-.277.134-.277.3v3.16c0 .165.124.3.277.3h1.763c.153 0 .277-.135.277-.3v-3.16c0-.166-.124-.3-.277-.3zm-.278 3.16h-1.207v-2.56h1.207v2.56zm.278-8.352h-1.763c-.153 0-.277.134-.277.3v3.16c0 .166.124.3.277.3h1.763c.153 0 .277-.134.277-.3v-3.16c0-.166-.124-.3-.277-.3zm-.278 3.16h-1.207v-2.56h1.207v2.56zm4.333 7.237h-1.763c-.153 0-.277.135-.277.3v3.16c0 .166.124.3.277.3h1.763c.154 0 .278-.134.278-.3v-3.16c0-.165-.124-.3-.278-.3zm-.277 3.16H15.84v-2.56h1.208v2.56zm-3.778-3.16h-1.763c-.153 0-.277.135-.277.3v3.16c0 .166.124.3.277.3h1.763c.153 0 .277-.134.277-.3v-3.16c0-.165-.124-.3-.277-.3zm-.278 3.16h-1.207v-2.56h1.207v2.56z" fill="#000"/></g><path d="M4 784h29.6v32H4z"/><g fill-rule="nonzero"><path d="M6.29 811.292h25.02v-22.584H6.29v22.584zm25.24.476H6.07c-.121 0-.22-.106-.22-.238v-23.06c0-.132.098-.238.22-.238h25.46c.121 0 .22.106.22.238v23.06c0 .132-.099.238-.22.238z" stroke="#000" stroke-width=".5" fill="#000"/><path d="M7.644 790.158v19.678l7.838-1.56v-16.762l-7.838-1.356zm-.22 20.201a.21.21 0 0 1-.14-.055.246.246 0 0 1-.08-.183V789.88c0-.07.029-.135.078-.18a.208.208 0 0 1 .177-.054l8.278 1.431c.11.023.188.122.185.235v17.163a.234.234 0 0 1-.18.234l-8.278 1.647a.187.187 0 0 1-.04.004v-.001z" fill="#D8232A"/><path d="M11.588 809.562c-.122 0-.22-.107-.22-.238V790.6c0-.131.098-.238.22-.238.121 0 .22.107.22.238v18.725c0 .131-.099.238-.22.238v-.001z" fill="#D8232A"/><path d="M15.702 800.238H7.424c-.121 0-.22-.106-.22-.238 0-.131.099-.238.22-.238h8.278c.122 0 .22.107.22.238 0 .132-.098.238-.22.238z" fill="#D8232A"/><path d="M16.593 801.556c-.122 0-.22-.107-.22-.238 0-.408 0-1.49-.117-2.045-.042-.199-.14-.402-.554-.402-.121 0-.22-.106-.22-.237 0-.132.099-.238.22-.238.678 0 .91.42.983.772.113.537.128 1.431.128 2.15 0 .131-.099.238-.22.238z" fill="#000"/><path d="m22.118 808.278 7.837 1.558v-19.678l-7.837 1.356v16.764zm8.057 2.081a.173.173 0 0 1-.04-.004l-8.277-1.645a.234.234 0 0 1-.18-.234V791.31c0-.117.078-.216.185-.235l8.278-1.432c.064-.01.13.01.177.054.05.046.077.112.077.181v20.242c0 .07-.028.138-.079.183a.211.211 0 0 1-.14.055l-.001.001z" fill="#D8232A"/><path d="M26.012 809.562c-.122 0-.22-.107-.22-.238V790.6c0-.131.098-.238.22-.238.121 0 .22.107.22.238v18.725c0 .131-.099.238-.22.238v-.001z" fill="#D8232A"/><path d="M30.175 800.238h-8.277c-.122 0-.22-.106-.22-.238 0-.131.098-.238.22-.238h8.277c.122 0 .22.107.22.238 0 .132-.098.238-.22.238z" fill="#D8232A"/><path d="M21.007 801.556c-.122 0-.22-.107-.22-.238 0-.719.014-1.613.127-2.15.075-.353.305-.772.984-.772.121 0 .22.106.22.238 0 .131-.099.237-.22.237-.414 0-.513.203-.554.402-.117.555-.117 1.637-.117 2.045 0 .131-.099.238-.22.238z" fill="#000"/></g><path d="M4 836h29.6v32H4z"/><g fill="#000" fill-rule="nonzero"><path d="M28.873 843.417v5.371l.228-.246H15.924c-.177 0-.357-.013-.535 0h-.025l.228.246v-6.42c-.076.08-.153.165-.228.246h12.741c.219 0 .417.084.568.259.13.151.201.344.2.544.005.318.46.318.456 0-.01-.55-.324-1.035-.802-1.222a1.225 1.225 0 0 0-.451-.074H17.13c-.579 0-1.162-.017-1.741 0h-.025c-.123 0-.228.113-.228.246v6.42c0 .134.105.247.228.247h12.051c.553 0 1.107.017 1.661 0h.025c.123 0 .228-.113.228-.246v-5.371c0-.318-.456-.318-.456 0z"/><path d="M22.007 848.79v6.423l.228-.246H9.058c-.178 0-.358-.012-.536 0h-.025l.228.246v-6.423l-.228.247h12.051c.554 0 1.108.017 1.662 0h.025c.294 0 .294-.493 0-.493H10.184c-.554 0-1.108-.017-1.662 0h-.025c-.123 0-.228.113-.228.246v6.423c0 .133.105.247.228.247h12.051c.554 0 1.108.017 1.662 0h.025c.123 0 .228-.114.228-.247v-6.423c0-.317-.456-.317-.456 0z"/><path d="M15.366 848.544H8.5l.228.246v-5.238c0-.1-.005-.204.015-.305.078-.36.367-.623.712-.633.19-.005.382 0 .574 0h4.496c.267 0 .538.015.805 0h.036l-.228-.247v6.42c0 .319.456.319.456 0v-6.419c0-.134-.105-.247-.228-.247h-5.143c-.247 0-.49-.002-.737 0-.67.005-1.207.58-1.214 1.306-.01.847 0 1.695 0 2.542v2.822c0 .132.105.246.228.246h6.866c.294 0 .294-.493 0-.493zm13.507 6.666v5.372a.82.82 0 0 1-.31.652c-.264.205-.636.15-.945.15H16.41c-.33 0-.663-.01-.996 0h-.046l.228.247v-6.42l-.228.246H27.42c.554 0 1.108.017 1.662 0h.025c.294 0 .294-.493 0-.493H17.055c-.554 0-1.108-.017-1.662 0h-.025c-.123 0-.228.114-.228.247v6.42c0 .133.105.247.228.247H27.39c.248 0 .496.002.743 0 .658-.01 1.191-.584 1.198-1.296.003-.156 0-.31 0-.466v-4.905c-.002-.316-.458-.318-.458 0v-.001z"/><path d="M8.5 855.457h6.866l-.228-.246v6.42l.228-.246H9.505c-.438-.003-.775-.35-.777-.828-.003-.862 0-1.725 0-2.587 0-.904.013-1.808 0-2.712v-.047c0-.318-.456-.318-.456 0v5.277c0 .172.009.345.061.508.137.423.474.766.887.854.24.052.497.03.738.03h3.022c.782 0 1.563.015 2.345 0h.039c.123 0 .228-.113.228-.246v-6.42c0-.134-.105-.247-.228-.247H8.497c-.291-.003-.291.49.003.49zm20.373-6.667v6.423l.228-.246h-6.866l.228.246v-6.423l-.228.247H29.1c.294 0 .294-.493 0-.493h-6.866c-.123 0-.228.113-.228.246v6.423c0 .133.105.247.228.247H29.1c.123 0 .228-.114.228-.247v-6.423c0-.317-.456-.317-.456 0h.001z"/></g><path d="M4 336h29.6v32H4z"/><g fill-rule="nonzero"><path d="M7.204 339c-.237 0-.429.208-.429.464v25.072c0 .256.192.464.43.464h23.19c.238 0 .43-.208.43-.464v-6.5c0-.257-.192-.465-.43-.465H13.647v-18.107c0-.256-.192-.464-.429-.464H7.204zm.43.928h5.154v18.107c0 .257.192.465.429.465h16.75v5.571H7.633v-24.143h.001z" fill="#303030"/><path fill="#000" d="M21.575 339h1v14h-1z"/><path fill="#D8232A" d="M21.575 339h1v14h-1z"/><path fill="#000" d="M19.725 339h4.625v1h-4.625z"/><path fill="#D8232A" d="M19.725 339h4.625v1h-4.625z"/><path fill="#000" d="M19.725 353h4.625v1h-4.625z"/><path fill="#D8232A" d="M19.725 353h4.625v1h-4.625z"/></g><path d="M4 168h29.6v32H4z"/><g fill-rule="nonzero"><path d="M10.406 172.02a.47.47 0 0 0-.384 0 .364.364 0 0 0-.161.12l-2.018 2.182a.544.544 0 0 0-.153.382c0 .145.055.283.153.382a.47.47 0 0 0 .353.165.47.47 0 0 0 .353-.165l1.16-1.2v12.632l-1.16-1.244a.468.468 0 0 0-.353-.165.468.468 0 0 0-.353.165.544.544 0 0 0-.153.382c0 .144.055.283.153.382l2.018 2.181a.364.364 0 0 0 .161.12.442.442 0 0 0 .384 0 .53.53 0 0 0 .312-.294.483.483 0 0 0 0-.208v-15.271a.483.483 0 0 0 0-.207.537.537 0 0 0-.312-.338v-.001zm19.484 21.064a.537.537 0 0 0-.273-.294.384.384 0 0 0-.192 0H15.26a.384.384 0 0 0-.192 0 .537.537 0 0 0-.272.294.586.586 0 0 0 0 .415c.021.068.06.128.11.174l2.019 2.182a.47.47 0 0 0 .353.165c.134 0 .262-.06.353-.165.099-.102.154-.24.153-.382a.544.544 0 0 0-.153-.382l-1.15-1.254h11.684l-1.15 1.254a.544.544 0 0 0-.153.382c0 .145.055.283.153.382a.47.47 0 0 0 .353.165c.134 0 .262-.06.353-.165l2.018-2.182a.395.395 0 0 0 .111-.174.585.585 0 0 0 .04-.415z" fill="#D8232A"/><path d="M28.88 172.02H13.746c-.557 0-1.009.489-1.009 1.091v16.363c0 .602.452 1.09 1.01 1.09H28.88c.557 0 1.009-.488 1.009-1.09V173.11c0-.602-.452-1.09-1.01-1.09h.001zm0 17.454H13.746V173.11h15.136v16.363l-.002.001z" fill="#303030"/></g><path d="M4 224h29.6v32H4z"/><rect stroke="#303030" stroke-width=".872" x="13.653" y="227.436" width="10.293" height="5.59" rx="1.09"/><path fill="#000" fill-rule="nonzero" d="M18.838 232.923v7.538"/><path stroke="#303030" stroke-width=".872" d="M18.838 232.923v7.538"/><path fill="#000" fill-rule="nonzero" d="M16.277 229.692h5.045"/><path stroke="#D8232A" stroke-width=".6" d="M16.277 229.692h5.045"/><path d="M25.232 237.436c.368 0 .713.135.989.366.276.232.482.56.573.945l2.996 12.64c.11.467.035.938-.175 1.322-.21.384-.556.68-.988.8l-20.179.055a1.55 1.55 0 0 1-1.14-.51 1.812 1.812 0 0 1-.473-1.234l3.046-13.073c.091-.386.297-.713.573-.945.276-.231.62-.366.99-.366h13.788z" stroke="#303030" stroke-width=".872"/><path d="M4 280h29.6v32H4z"/><g fill-rule="nonzero"><path d="M19.221 284.523c-.123 0-.222.108-.222.24V296.2H8.385c-.123 0-.223.108-.223.241v10.796c0 .132.1.24.223.24h20.83c.123 0 .222-.108.222-.24v-22.474c0-.132-.1-.24-.222-.24H19.22h.001zm.223.481h9.548v3.251h-4.506v-2.166h-.446v2.647h4.952v6.74H24.59v.48h4.402v11.04h-3.304v-3.764c0-.133-.1-.24-.223-.24H21.5c-.123 0-.222.107-.222.24v3.764H8.608v-10.314h6.904v5.33h-5.343v.481h5.788v-5.811h3.265c.123 0 .223-.108.223-.24v-.485h2.92v-.482h-2.92v-10.47l-.001-.001zm2.278 18.469h3.52v3.523h-3.52v-3.523z" stroke="#303030" stroke-width=".5" fill="#303030"/><path fill="#D8232A" d="M10.013 284.523h1v8h-1z"/><path d="M8.163 284.523h4.625v1H8.163v-1zm0 8h4.625v1H8.163v-1z" fill="#D8232A"/></g><path d="M4 392h29.6v32H4z"/><path d="M4 392h29.6v32H4z"/><path fill="#F5F5F5" fill-rule="nonzero" d="M24.377 401.838 27 404.312v-3.852h-2.623z"/><path fill="#F5F5F5" fill-rule="nonzero" d="m18.955 396.73 12.805 12.052H6.132z"/><path d="m29.724 407.955-10.77-10.137L8.17 407.955h21.554zM18.955 396.73l12.805 12.052H6.132l12.823-12.052z" fill="#303030" fill-rule="nonzero"/><path d="M10.895 419.053h16.102v-10.48l-8.051-7.072-8.051 7.072v10.48zm8.051-18.611 8.803 7.732v11.707H10.143v-11.707l8.803-7.732z" fill="#303030" fill-rule="nonzero"/><path fill="#F5F5F5" fill-rule="nonzero" d="M10.895 419.053h16.102v-10.48l-8.051-7.072-8.051 7.072z"/><path d="M18.884 406.5h.017c.868.027 1.504.344 1.956.839.455.499.73 1.19.82 1.96.18 1.543-.402 3.38-1.597 4.452a.287.287 0 0 0-.094.212c-.006.861.146 1.355.367 1.669.221.313.49.425.547.477.02.018.043.033.068.044 1.332.64 2.384.877 3.057 1.104.337.113.564.233.692.353.128.12.188.237.188.503v1.387H12.88v-1.387c0-.266.06-.383.188-.503s.355-.24.692-.353c.673-.227 1.725-.464 3.057-1.104a.272.272 0 0 0 .068-.044c.056-.052.326-.164.547-.477.221-.314.373-.808.367-1.67a.287.287 0 0 0-.094-.211c-1.195-1.073-1.776-2.909-1.597-4.451.09-.772.365-1.462.82-1.961.452-.495 1.088-.812 1.956-.839z" stroke="#D8232A" stroke-width=".7"/><path fill="#000" fill-rule="nonzero" d="M12.325 419H26.2v1H12.325z"/><path fill="#303030" fill-rule="nonzero" d="M12.325 419H26.2v1H12.325z"/><path d="M4 448h29.6v32H4z"/><path d="M4 448h29.6v32H4z"/><path fill="#F5F5F5" fill-rule="nonzero" d="M24.377 457.838 27 460.312v-3.852h-2.623z"/><path fill="#F5F5F5" fill-rule="nonzero" d="m18.955 452.73 12.805 12.052H6.132z"/><path d="m29.724 463.955-10.77-10.137L8.17 463.955h21.554zM18.955 452.73l12.805 12.052H6.132l12.823-12.052z" fill="#303030" fill-rule="nonzero"/><path d="M10.895 475.053h16.102v-10.48l-8.051-7.072-8.051 7.072v10.48zm8.051-18.611 8.803 7.732v11.707H10.143v-11.707l8.803-7.732z" fill="#303030" fill-rule="nonzero"/><path fill="#F5F5F5" fill-rule="nonzero" d="M10.895 475.053h16.102v-10.48l-8.051-7.072-8.051 7.072z"/><path d="M24.16 468.201h-.434l-1.004-3.455c.369.14.673.183.903.183.307 0 .481-.074.496-.081.11-.049.162-.183.118-.303a.213.213 0 0 0-.28-.132c-.007.003-.664.26-1.784-.467-1.142-.74-2.172-.81-2.628-.798v-.43c0-.13-.097-.235-.217-.235s-.217.105-.217.234v.431c-.456-.013-1.486.057-2.628.798-1.12.727-1.777.47-1.781.468-.11-.049-.238.008-.283.128-.046.12.007.257.118.306a1.3 1.3 0 0 0 .497.08c.196 0 .448-.031.748-.128l-.989 3.401H14.5c-.12 0-.217.105-.217.235v1.14c0 .438.33.794.735.794h2.347c.405 0 .734-.356.734-.794v-1.14c0-.13-.097-.235-.216-.235h-.435l-1.064-3.662a4.59 4.59 0 0 0 .324-.19c1.056-.685 2.015-.741 2.405-.73v7.526h-1.31c-.409 0-.742.36-.742.803v1.327c0 .13.098.235.217.235h4.058c.12 0 .217-.105.217-.235v-1.327c0-.443-.333-.803-.742-.803h-1.264v-7.526c.39-.011 1.35.045 2.405.73.07.045.138.084.205.123l-1.084 3.73h-.295c-.12 0-.217.104-.217.234v1.14c0 .438.33.794.735.794h2.347c.405 0 .734-.356.734-.794v-1.14c0-.13-.097-.235-.216-.235h-.001zm-6.494 1.375c0 .18-.135.325-.301.325h-2.347c-.167 0-.302-.146-.302-.325v-.906h2.95v.906zm-2.416-1.375.872-3 .872 3H15.25zm5.87 3.747v1.093h-3.625v-1.093c0-.184.138-.334.309-.334h3.007c.17 0 .308.15.308.334h.001zm1.28-6.747.872 3h-1.744l.872-3zm1.544 4.375c0 .18-.135.325-.301.325h-2.347c-.167 0-.302-.146-.302-.325v-.906h2.95v.906z" fill="#D8232A" fill-rule="nonzero"/><path fill="#000" fill-rule="nonzero" d="M12.325 475H26.2v1H12.325z"/><path fill="#303030" fill-rule="nonzero" d="M12.325 475H26.2v1H12.325z"/><path d="M4 560h29.6v32H4z"/><g fill-rule="nonzero"><path d="M14.806 569.455v4.318H18.8c.22 0 .42.216.42.454v4.318h3.995c.22 0 .42.217.42.455v4.318h3.995c.22 0 .42.217.42.455v3.772c0 .238-.2.455-.42.455H9.97c-.22 0-.42-.217-.42-.455v-18.09c0-.238.2-.455.42-.455h4.455c.206.021.382.23.38.455h.001zm-.841.454H10.39v17.182h16.818v-2.864h-3.994c-.22 0-.42-.216-.42-.454v-4.318H18.8c-.22 0-.42-.217-.42-.455v-4.318h-3.995c-.22 0-.42-.217-.42-.455v-4.318z" stroke="#F5F5F5" stroke-width=".3" fill="#000"/><path d="M28.428 587.928c0-.512-.385-.928-.86-.928h-17.16c-.473 0-.858.416-.858.928 0 .513.385.929.859.929h17.16c.474 0 .859-.416.859-.929z" fill="#D8232A"/></g><path d="M4 616h29.6v32H4z"/><g fill-rule="nonzero"><path d="M29.9 643.804v-23.608c0-.108-.082-.196-.182-.196H7.882c-.1 0-.182.088-.182.196v9.976c0 .108.082.196.182.196h12.427v13.436c0 .108.082.196.182.196h9.227c.1 0 .182-.088.182-.196zm-.364-.197h-4.189v-1.115h-.485v1.115h-4.189v-13.435c0-.109-.081-.197-.182-.197H8.064v-4.528h1.031v-.525H8.064v-4.529h21.472v23.214z" stroke="#303030" fill="#303030"/><path d="M24.862 633.352h1v2.285h-1v-2.285zm0-4.57h1v2.285h-1v-2.285zm0 9.14h1v2.285h-1v-2.285zm0-11.426h.485v-1.574h-1.455v.525h.97v1.049zm-9.426-1.573h2.114v1h-2.114v-1zm4.228 0h2.114v1h-2.114v-1zm-8.455 0h2.114v1h-2.114v-1z" stroke="#D8232A" fill="#D8232A"/></g><path d="M4 948h29.6v32H4z"/><path d="M28.713 968.062H8.88c.331-2.802 2.923-3.419 5.175-3.419h9.494c2.654 0 4.856.912 5.163 3.42l.001-.001zm-4.414-4.652-11 .003c-.912.057-1.768.225-2.525.526v-6.682c0-.552.414-1 .925-1H25.9c.511 0 .925.448.925 1v6.666c-.754-.292-1.61-.456-2.527-.513h.001zm3.675 1.12V957c0-1.105-.829-2-1.85-2H11.476c-1.021 0-1.85.895-1.85 2v7.56c-1.199.861-1.926 2.208-1.926 4.129v7.693a.575.575 0 0 0 1.147 0v-1.663h19.906v1.663a.575.575 0 0 0 1.147 0v-7.693c0-1.988-.74-3.325-1.926-4.16v.001zm-13.525-1.14h8.702-8.702zm14.304 5.926v4.15H8.847v-4.15h19.906z" stroke="#F5F5F5" stroke-width=".5" fill="#000" fill-rule="nonzero"/><path fill="#D8232A" fill-rule="nonzero" d="M13.524 962.39v-1.857h10.552v1.857z"/><path d="M4 1004h29.6v32H4z"/><g fill-rule="nonzero"><path d="M29.623 1019.7h-.753c-.146-5.768-4.457-10.429-9.792-10.586v-.814c0-.166-.125-.3-.278-.3-.153 0-.277.134-.277.3v.814c-5.336.157-9.647 4.818-9.793 10.586h-.753c-.153 0-.277.134-.277.3 0 .166.124.3.277.3h.753c.146 5.768 4.457 10.429 9.793 10.586v.814c0 .166.124.3.277.3.153 0 .277-.134.277-.3v-.814c5.336-.157 9.647-4.818 9.793-10.586h.753c.153 0 .277-.134.277-.3 0-.166-.124-.3-.277-.3zm-10.545 10.586v-.79c0-.165-.125-.3-.278-.3-.153 0-.277.135-.277.3v.79c-5.03-.157-9.093-4.548-9.238-9.986h.73c.154 0 .278-.134.278-.3 0-.166-.124-.3-.277-.3h-.73c.144-5.438 4.207-9.83 9.236-9.986v.79c0 .165.125.3.278.3.153 0 .277-.135.277-.3v-.79c5.03.157 9.093 4.548 9.238 9.986h-.73c-.154 0-.278.134-.278.3 0 .166.124.3.277.3h.73c-.144 5.438-4.207 9.83-9.236 9.986z" fill="#000"/><path d="m24.201 1019.661-8.884-4.802a.263.263 0 0 0-.321.058.318.318 0 0 0-.05.347l2.213 4.666-2.213 4.665a.318.318 0 0 0 .05.347.26.26 0 0 0 .321.057l8.884-4.801a.304.304 0 0 0 .153-.268.304.304 0 0 0-.153-.269zm-8.374 4.393 1.89-3.987a.32.32 0 0 0 0-.274l-1.89-3.988 7.63 4.125-7.63 4.124z" fill="#D8232A"/></g><path d="M4 1060h29.6v32H4z"/><g fill-rule="nonzero"><path d="M22.5 1086.41v-3.274c0-1.146-.873-2.075-1.95-2.075h-.654a.535.535 0 0 1-.498-.425l-1.01-4.318c-.187-.769-.835-1.309-1.58-1.318H9.692c-.755.004-1.411.553-1.594 1.333l-1.01 4.319a.535.535 0 0 1-.498.424h-.64c-1.072 0-1.942.92-1.95 2.06v3.288c.008 1.224.942 2.212 2.092 2.212h.754v2.273c0 .418.319.758.712.758.393 0 .711-.34.711-.758v-2.273h9.962v2.273c0 .418.318.758.711.758.393 0 .712-.34.712-.758v-2.273h.754c1.155 0 2.092-.997 2.092-2.227v.001zm-13.937-5.484 1-4.168c.005-.12.088-.216.196-.23h6.899a.23.23 0 0 1 .21.183l.985 4.215H8.535h.028zm-2.933 2.407c0-.313.233-.567.52-.567h14.207c.287 0 .52.254.52.567v2.793c0 .398-.296.72-.66.72H6.29a.635.635 0 0 1-.473-.216.76.76 0 0 1-.188-.52v-2.777h.001zm1.886 1.964c-.388 0-.703-.111-.703-.535 0-.424.315-.767.703-.767h1.407c.388 0 .703.343.703.767s-.315.535-.703.535H7.516zm9.142-.535c0-.424.315-.767.703-.767h1.407c.388 0 .703.343.703.767s-.315.535-.703.535H17.36c-.388 0-.703-.111-.703-.535h.001zM21.736 1065c-.701 0-1.374.304-1.87.845a3.023 3.023 0 0 0-.774 2.04v8.055c.008 1.587 1.19 2.87 2.644 2.87h2.982v11.322h-2.11c-.388 0-.703.344-.703.767 0 .424.315.768.703.768h5.626c.388 0 .703-.344.703-.768 0-.423-.315-.767-.703-.767h-2.11v-11.322h2.996c1.45-.009 2.622-1.289 2.63-2.87v-8.055c0-1.588-1.175-2.877-2.63-2.885h-7.384zm8.608 10.94c0 .74-.546 1.342-1.224 1.35h-7.384c-.328 0-.643-.142-.875-.395a1.415 1.415 0 0 1-.362-.955v-8.055c0-.746.554-1.35 1.237-1.35h7.384c.684 0 1.238.604 1.238 1.35l-.014 8.055z" stroke="#F5F5F5" stroke-width=".8" fill="#000"/><path d="M25.421 1068.069c1.165 0 2.11 1.03 2.11 2.301 0 1.272-.945 2.302-2.11 2.302h-.703v2.302c0 .423-.315.767-.703.767-.389 0-.704-.344-.704-.767v-6.138c0-.424.315-.767.704-.767h1.406zm0 1.534h-.703v1.535h.703c.388 0 .703-.344.703-.768 0-.423-.315-.767-.703-.767z" stroke="#F5F5F5" stroke-width=".5" fill="#D8232A"/><path d="M7.516 1085.53c-.388 0-.703-.344-.703-.768 0-.424.315-.767.703-.767h1.407c.388 0 .703.343.703.767s-.315.767-.703.767H7.516v.001zm9.142-.768c0-.424.315-.767.703-.767h1.407c.388 0 .703.343.703.767s-.315.767-.703.767H17.36c-.388 0-.703-.343-.703-.767h.001z" fill="#303030"/></g><path d="M4.4 1846H34v32H4.4z"/><g fill-rule="nonzero"><path d="M15.071 1869.859c.01 1.038.78 1.87 1.72 1.865.939-.005 1.702-.845 1.702-1.88a1.993 1.993 0 0 0-.516-1.343 1.643 1.643 0 0 0-1.22-.543c-.94.016-1.695.863-1.686 1.9v.001zm1.678-2.551c.63-.001 1.23.265 1.653.733.44.475.69 1.123.693 1.8 0 1.394-1.03 2.527-2.302 2.533-1.273.007-2.311-1.115-2.323-2.51-.012-1.393 1.006-2.536 2.279-2.556zm11.979-2.992h-12.92l-2.176-12.159h17.632l-2.536 12.159zm1.784-11.509H14.36l1.942 10.858h11.944l2.265-10.858h.001zm-5.772 17.052c.008 1.038.778 1.87 1.718 1.865.94-.005 1.703-.845 1.703-1.88a1.993 1.993 0 0 0-.516-1.343 1.643 1.643 0 0 0-1.22-.543c-.94.016-1.695.863-1.686 1.9l.001.001zm1.677-2.551a2.222 2.222 0 0 1 1.654.733 2.67 2.67 0 0 1 .692 1.8c0 1.394-1.03 2.527-2.302 2.533-1.273.007-2.311-1.115-2.323-2.51-.012-1.393 1.007-2.536 2.28-2.556h-.001z" fill="#333"/><path fill="#333" d="M12.366 1851.626h-5.23v.482h4.476l2.963 14.045h14.551v-.635h-13.89z"/><path d="M17.322 1854.038h-1.057l.704 8.445h1.068l-.715-8.445zm3.193 0h-1.068l.716 8.445h1.057l-.705-8.445zm3.182 0H22.64l.705 8.445h1.057l-.705-8.445zm3.183 0h-1.057l.704 8.445h1.068l-.715-8.445z" fill="#E4666C"/></g><path d="M4 1902h32v32H4z"/><g fill-rule="nonzero"><path fill="#303030" d="M29.678 1909.633v6.478l-4.461-3.892v-2.586z"/><path fill="#F5F5F5" d="m26.03 1911.838 2.835 2.474v-3.852H26.03z"/><path fill="#F5F5F5" d="m20.168 1906.73 13.843 12.052H6.305z"/><path d="m31.81 1917.955-11.643-10.137-11.659 10.137H31.81zm-11.642-11.225 13.843 12.052H6.305l13.863-12.052z" fill="#303030"/><path d="M11.454 1929.053h17.408v-10.48l-8.704-7.072-8.704 7.072v10.48zm8.704-18.611 9.517 7.732v11.707H10.64v-11.707l9.517-7.732h.001z" fill="#303030"/><path fill="#F5F5F5" d="M11.454 1929.053h17.408v-10.48l-8.704-7.072-8.704 7.072z"/><path d="M16.92 1929.051h6.478v-10.268H16.92v10.268zm7.29-11.095v11.923h-8.103v-11.923h8.104-.001z" fill="#303030"/><path fill="#303030" d="M21.98 1922.994h1.81v1.025h-1.81z"/><path d="m21.93 1929.058.191-.002h.064l.328-.003h8.848c.813.012 1.47-.663 1.158-1.819-.169-.63-.67-.826-1.703-.566l-.573.144.073-.597c.125-1.028.1-1.295-.167-1.75-.444-.753-1.424-.99-2.086-.394-.489.439-.806 1.043-.962 1.818l-.033.153a.98.98 0 0 1-.121.32c-.193.3-.588.292-.779-.017a1.509 1.509 0 0 0-.7-.622c-.531-.224-1.168.13-1.323.848-.039.19-.062.382-.07.575-.007.119-.024.27-.044.39-.01.062-.024.123-.043.183-.017.054-.017.054-.092.17-.325.2-.5.193-.66-.05a2.827 2.827 0 0 0-.806-.844c-.531-.346-1.07-.297-1.48.117-.481.489-.487 1.4.221 1.843.246.075.499.11.76.103h-.001zm11.373-2.043c.468 1.741-.643 2.884-1.948 2.866h-8.842c-.089 0-.16 0-.319.002l-.064.001-.188.001a3.167 3.167 0 0 1-1.06-.155l-.079-.035c-1.26-.735-1.264-2.32-.426-3.169.683-.693 1.644-.78 2.495-.226.153.103.298.218.434.346a4.15 4.15 0 0 1 .044-.248c.264-1.22 1.424-1.864 2.425-1.441.225.092.433.224.62.39.213-.77.587-1.408 1.13-1.896 1.068-.961 2.63-.584 3.321.589.316.536.398.925.335 1.719 1.11-.132 1.86.282 2.122 1.256z" fill="#D8232A"/><path d="m21.93 1929.058.191-.002h.064l.328-.003h8.848c.813.012 1.47-.663 1.158-1.819-.169-.63-.67-.826-1.703-.566l-.573.144.073-.597c.125-1.028.1-1.295-.167-1.75-.444-.753-1.424-.99-2.086-.394-.489.439-.806 1.043-.962 1.818l-.033.153a.98.98 0 0 1-.121.32c-.193.3-.588.292-.779-.017a1.509 1.509 0 0 0-.7-.622c-.531-.224-1.168.13-1.323.848-.039.19-.062.382-.07.575-.007.119-.024.27-.044.39-.01.062-.024.123-.043.183-.017.054-.017.054-.092.17-.325.2-.5.193-.66-.05a2.827 2.827 0 0 0-.806-.844c-.531-.346-1.07-.297-1.48.117-.481.489-.487 1.4.221 1.843.246.075.499.11.76.103h-.001z" fill="#F5F5F5"/></g><g><path d="M5 1958h32v32H5z"/><g fill-rule="nonzero"><path d="M30.236 1972.174v11.622c0 .533-.023 1.072 0 1.605v.023l.573-.573h-19.64c-.266 0-.532-.009-.798 0h-.034l.572.573v-11.622c0-.533.014-1.07 0-1.605v-.023c0-.301-.263-.588-.572-.573-.31.014-.573.252-.573.573v11.622c0 .533-.014 1.069 0 1.605v.023c0 .31.264.573.573.573h19.639c.266 0 .532.006.798 0h.035a.582.582 0 0 0 .572-.573v-11.622c0-.533.014-1.07 0-1.605v-.023c0-.301-.263-.588-.572-.573-.31.014-.573.252-.573.573z" fill="#303030"/><path d="M7.98 1974.783c.423-.391.845-.782 1.265-1.173l3.04-2.82 3.68-3.41 3.18-2.95c.515-.477 1.05-.94 1.55-1.434.006-.005.014-.014.023-.02h-.813c.436.391.87.785 1.307 1.176l3.139 2.825c1.261 1.135 2.523 2.27 3.782 3.406l3.27 2.943c.532.477 1.058.962 1.595 1.434.01.006.015.014.023.02.225.201.595.236.814 0 .201-.219.238-.598 0-.813-.437-.391-.871-.785-1.308-1.176l-3.138-2.825a2524.87 2524.87 0 0 1-3.782-3.406l-3.271-2.943c-.532-.477-1.058-.963-1.595-1.434-.009-.006-.014-.014-.023-.02a.59.59 0 0 0-.813 0c-.423.39-.845.782-1.265 1.172-1.015.94-2.026 1.88-3.04 2.82l-3.68 3.411-3.18 2.95c-.515.476-1.047.942-1.55 1.433a.164.164 0 0 1-.023.02c-.221.204-.224.61 0 .814a.59.59 0 0 0 .813 0z" fill="#303030"/><path d="M22.536 1972.768c0 .066-.003.136-.009.203l-.009.081c-.011.14.027-.133 0 .003a3.505 3.505 0 0 1-.092.38l-.026.073c-.009.02-.026.125-.012.038.012-.084-.006.012-.017.038l-.035.07a2.524 2.524 0 0 1-.197.328c-.005.008-.075.116-.023.032.052-.082-.017.02-.026.029-.04.05-.084.096-.127.142-.07.073-.146.14-.226.203l.026-.02c-.009.052-.237.16-.286.186-.055.032-.113.06-.171.087a.247.247 0 0 1-.07.032.582.582 0 0 0 .032-.015c-.011.006-.023.01-.037.015a2.494 2.494 0 0 1-.452.12c-.11.022.035 0 .035-.004-.035.03-.194.018-.24.018a3.062 3.062 0 0 1-.365-.015c-.133-.012.101.02.017.003a6.585 6.585 0 0 0-.098-.017c-.064-.012-.127-.03-.191-.047a4.528 4.528 0 0 1-.185-.058c.003 0-.07-.023-.073-.026.01.026.113.052.015.006a3.167 3.167 0 0 1-.35-.195c-.02-.014-.044-.029-.064-.044-.009-.005-.116-.075-.032-.023.081.053-.02-.017-.029-.026l-.058-.05a2.344 2.344 0 0 1-.263-.272c-.009-.012-.078-.11-.026-.03.052.082-.015-.023-.023-.031a3.964 3.964 0 0 1-.093-.143c-.029-.049-.058-.098-.084-.15l-.043-.088a3.932 3.932 0 0 1-.009-.02c-.043-.015-.095-.285-.107-.334l-.04-.192c-.015-.075-.024 0 .002.035-.017-.023-.008-.09-.011-.12a2.46 2.46 0 0 1 0-.385l.009-.102c.008-.116-.006.035-.006.035-.018-.018.04-.21.046-.233.012-.049.06-.32.107-.334-.026.01-.052.114-.006.015.015-.03.026-.058.04-.087.03-.058.059-.113.094-.169.031-.055.066-.107.104-.16 0 0 .037-.06.043-.06-.035.005-.075.09-.009.011a3.22 3.22 0 0 1 .275-.287c.026-.024.084-.096.116-.1-.02.015-.037.03-.058.044l.125-.087c.107-.07.217-.133.333-.186.023-.011.118-.029.037-.017-.087.012.017-.006.038-.012.055-.02.11-.037.165-.055.055-.017.113-.032.17-.043.032-.006.064-.015.096-.02.15-.027-.098.005.023-.007.122-.008.243-.017.365-.014.066.003.133.009.2.014.09.01-.027-.014-.035-.005.011-.012.095.017.116.02.141.03.274.07.41.12.122.043-.086-.047-.014-.007.035.018.07.032.104.05.064.032.125.064.185.101.061.035.116.076.174.117a.615.615 0 0 0-.012-.012c.024 0 .073.06.087.073.124.108.239.226.342.354-.052-.067-.058-.076-.023-.026l.023.032a3.1 3.1 0 0 1 .211.36c.015.029.026.058.04.087a.759.759 0 0 0-.02-.05l.026.073c.047.128.084.262.11.395.003.015.026.087.018.099-.012-.081-.012-.102-.009-.055.003.02.006.04.006.06.02.082.029.166.026.25.003.306.263.596.579.582.312-.015.581-.256.579-.581a3.25 3.25 0 0 0-2.148-3.027c-1.21-.439-2.668-.044-3.481.959-.44.54-.698 1.17-.75 1.864-.05.636.116 1.299.44 1.842a3.232 3.232 0 0 0 3.415 1.493c1.461-.297 2.51-1.656 2.52-3.131.004-.305-.269-.596-.578-.581a.59.59 0 0 0-.576.58v.001z" fill="#D8232A"/><path d="M23.387 1975.872c.058.037.115.077.172.117.111.078-.066-.057 0 0 .026.023.054.043.08.066.106.09.206.187.297.29.012.011.12.16.135.158-.023.003-.066-.092-.003 0l.06.086c.077.114.149.238.209.36.02.038.037.078.054.116.017.034.054.074-.009-.02.035.051.052.14.072.2.043.135.08.275.103.416a.57.57 0 0 0 .006.02c.005.026.005.06.008.086.006.074.012.146.014.22v2.263c.003.132.035-.124.003.003l-.017.074c-.006.026-.011.12-.008.04.005-.011.008-.023.014-.034l-.034.069c-.012.023-.026.043-.04.066-.052.091.085-.078-.015.017a.715.715 0 0 0-.066.066c-.077.08.026-.026.03-.02 0 .002-.15.103-.164.094.009.009.123-.043.012-.011-.032.008-.063.014-.095.023-.111.028.037-.009.034-.003 0 .003-.08.003-.08.003h-7.305c-.057 0-.132-.04-.006.008-.023-.008-.186-.026-.186-.048 0-.006.129.068.032.011-.026-.014-.055-.032-.083-.046-.103-.054.011.012.008.012-.005.002-.077-.072-.083-.078-.011-.014-.074-.106-.028-.028a1.943 1.943 0 0 0-.02-.035c-.015-.023-.023-.046-.037-.066-.063-.109.028.118 0-.003-.006-.025-.015-.048-.02-.074l-.009-.037c-.009-.052-.009-.052 0-.003.003.011.003.025.006.037-.003-.026-.003-.055-.003-.08v-.006c-.009-.59 0-1.184 0-1.775v-.398c0-.075.006-.15.011-.224l.009-.089c.014-.134-.02.1.003-.02.026-.14.06-.28.1-.418.02-.07.046-.135.068-.201.009-.029.032-.103-.008.02.014-.04.034-.077.051-.115.06-.126.129-.249.206-.367.037-.057.075-.123.12-.172-.011.012-.08.095-.011.018l.08-.095c.091-.103.192-.204.294-.292.02-.018.043-.035.063-.055.106-.094-.1.069.015-.014l.171-.12c.249-.164.378-.517.206-.786-.16-.25-.515-.381-.783-.207a3.823 3.823 0 0 0-1.745 3.191c-.002.631 0 1.259 0 1.89 0 .4.038.794.284 1.132.311.43.783.674 1.315.677.386.002.772 0 1.155 0h5.959c.197 0 .392-.003.586-.058.68-.192 1.135-.82 1.147-1.522.011-.62 0-1.239 0-1.858a5.14 5.14 0 0 0-.097-1.12 3.783 3.783 0 0 0-1.673-2.346c-.252-.16-.644-.06-.784.207a.61.61 0 0 0 .22.788z" fill="#303030"/></g></g><g><path d="M4.4 1112H34v32H4.4z"/><path d="M9.001 1129.5v-7.138s0 0 0 0c0-2.688 2.015-4.866 4.501-4.866.607 0 1.207.132 1.764.389l1.435.66h0" stroke="#303030" stroke-linecap="round"/><path d="M16.041 1119.006c-1.197 1.207-1.192 3.318.012 4.715l4.338-4.373c-1.205-1.397-3.152-1.55-4.35-.342h0z" stroke="#D8232A" stroke-linecap="round"/><path d="m18.273 1124.365 1.036 1.2m.081-3.2 1.035 1.2m1.005-2.2 1.035 1.2" stroke="#303030" stroke-linecap="round"/><path d="m7.585 1129.5 21.79.035-3.206 7.591c-.301.713-.959 1.17-1.683 1.17H12.929c-.69 0-1.324-.417-1.642-1.08l-3.702-7.716z" stroke="#303030"/><path d="M12.684 1138.296v2.326m12.22-2.326v2.326" stroke="#303030" stroke-linecap="round"/></g><g><path d="M2 1180h32v32H2z"/><g fill-rule="nonzero" stroke="#F5F5F5"><path d="M28.52 1203.263h-2.4v-4.89c1.094-.22 1.92-1.177 1.92-2.32 0-1.144-.826-2.1-1.92-2.32v-4.786h2.4c.265 0 .48-.212.48-.473a.477.477 0 0 0-.48-.474H7.48a.477.477 0 0 0-.48.474c0 .261.215.473.48.473h2.4v4.785c-1.094.22-1.92 1.177-1.92 2.32 0 1.145.826 2.101 1.92 2.32v4.891h-2.4a.477.477 0 0 0-.48.474v3.79c0 .261.215.473.48.473h21.04c.265 0 .48-.212.48-.474v-3.79a.476.476 0 0 0-.48-.473zm-1.44-7.21c0 .783-.646 1.42-1.44 1.42-.794 0-1.44-.637-1.44-1.42 0-.784.646-1.421 1.44-1.421.794 0 1.44.637 1.44 1.42v.001zm-1.92-2.32c-1.094.22-1.92 1.176-1.92 2.32s.826 2.1 1.92 2.32v4.89h-6.68v-4.89c1.094-.22 1.92-1.177 1.92-2.32 0-1.144-.826-2.1-1.92-2.32v-4.786h6.68V1193.733zm-7.16.899c.794 0 1.44.637 1.44 1.42 0 .784-.646 1.422-1.44 1.422-.794 0-1.44-.638-1.44-1.421 0-.784.646-1.421 1.44-1.421zm-9.08 1.42c0-.783.646-1.42 1.44-1.42.794 0 1.44.637 1.44 1.42 0 .784-.646 1.422-1.44 1.422-.794 0-1.44-.638-1.44-1.421v-.001zm1.92 2.32c1.094-.22 1.92-1.176 1.92-2.32 0-1.143-.826-2.1-1.92-2.32v-4.785h6.68v4.785c-1.094.22-1.92 1.177-1.92 2.32 0 1.145.826 2.101 1.92 2.32v4.891h-6.68v-4.891zm17.2 8.68H7.96v-2.841h20.08v2.842-.001z" stroke-width=".2" fill="#000"/><path d="M10.424 1193.25c.759 0 1.447.308 1.944.805.498.498.806 1.186.806 1.945 0 .76-.308 1.447-.806 1.945a2.741 2.741 0 0 1-1.944.805 2.744 2.744 0 0 1-2.75-2.75c0-.76.307-1.447.805-1.945a2.741 2.741 0 0 1 1.945-.805zm7.624 0a2.744 2.744 0 0 1 2.75 2.75 2.744 2.744 0 0 1-2.75 2.75 2.74 2.74 0 0 1-1.944-.805 2.741 2.741 0 0 1-.806-1.945c0-.76.308-1.447.806-1.945a2.741 2.741 0 0 1 1.944-.805zm7.626 0a2.744 2.744 0 0 1 2.75 2.75 2.744 2.744 0 0 1-2.75 2.75 2.744 2.744 0 0 1-2.75-2.75 2.744 2.744 0 0 1 2.75-2.75z" stroke-width="1.5" fill="#D8232A"/></g></g><g><path d="M0 1235h32v32H0z"/><path d="m20.497 1257.867.675-2.868a.315.315 0 0 1 .308-.241h1.915l-1.958-6.192H19.03l-1.958 6.191h1.915c.157 0 .288.113.313.26l.67 2.85h.527zM8.96 1239h14.08c2.729 0 4.96 2.19 4.96 4.866v13.816c0 2.677-2.231 4.866-4.96 4.866H8.96c-2.729 0-4.96-2.19-4.96-4.866v-13.816c0-2.677 2.231-4.866 4.96-4.866zm14.08.523H8.96c-2.435 0-4.427 1.955-4.427 4.343v13.816c0 2.388 1.992 4.343 4.427 4.343h14.08c2.434 0 4.427-1.955 4.427-4.343v-13.816c0-2.388-1.993-4.343-4.427-4.343zm-11.13 18.344.676-2.868a.315.315 0 0 1 .308-.241h1.908v-6.192h-6.31v6.191h1.909c.157 0 .288.113.312.26l.67 2.85h.528-.001zm.565.362a.315.315 0 0 1-.313.26h-1.03a.315.315 0 0 1-.308-.241l-.675-2.869H8.175a.314.314 0 0 1-.317-.31v-6.814c0-.172.142-.31.317-.31h6.944c.175 0 .317.138.317.31v6.813a.314.314 0 0 1-.317.311h-1.974l-.67 2.85zm8.586 0a.315.315 0 0 1-.313.26h-1.03a.315.315 0 0 1-.307-.241l-.675-2.869h-2.093c-.21 0-.365-.2-.302-.402l2.148-6.791a.316.316 0 0 1 .309-.242h2.872s.28.15.302.22l2.147 6.789a.312.312 0 0 1-.295.426h-2.092l-.671 2.85z" stroke="#303030" stroke-width=".5" fill="#303030" fill-rule="nonzero"/><path d="M20.234 1242.577c.501 0 .956.2 1.285.522a1.743 1.743 0 0 1 0 2.495 1.83 1.83 0 0 1-1.285.521c-.502 0-.956-.198-1.285-.521a1.743 1.743 0 0 1 0-2.495 1.829 1.829 0 0 1 1.285-.522zm-8.622 0c.502 0 .957.2 1.285.522a1.743 1.743 0 0 1 0 2.495 1.83 1.83 0 0 1-1.285.521c-.501 0-.956-.198-1.285-.521a1.743 1.743 0 0 1 0-2.495 1.829 1.829 0 0 1 1.285-.522z" stroke="#D8232A"/></g><g><path d="M4.4 1290H34v32H4.4z"/><g fill-rule="nonzero"><path d="M13.338 1313.248h-2.494c-.166 0-.277.12-.277.3s.11.3.277.3h2.494c.166 0 .277-.12.277-.3a.29.29 0 0 0-.277-.3z" fill="#000"/><path d="M30.023 1317.323c.166 0 .277-.12.277-.3v-12.403c0-.63-.471-1.139-1.053-1.139h-17.1v-5.573c0-.988.748-1.797 1.662-1.797h.5l-.472.509a.334.334 0 0 0-.028.39l.998 1.647c-.028.81.222 1.648.804 2.278l.083.09c.055.06.139.09.194.09.055 0 .139-.03.194-.09l3.548-3.836c.11-.12.11-.3 0-.42l-.084-.09a2.583 2.583 0 0 0-1.94-.868h-.166l-1.524-1.079c-.111-.09-.25-.06-.36.03l-.693.75h-1.054c-1.22 0-2.217 1.078-2.217 2.396v5.573H9.153c-.582 0-1.053.51-1.053 1.139v11.445c0 .689.527 1.258 1.164 1.258h5.515c.638 0 1.164-.57 1.164-1.258v-10.188h13.803v11.146c0 .18.11.3.277.3zm-10.975-20.345-3.16 3.416c-.748-.959-.72-2.397.11-3.266.444-.48.999-.719 1.608-.719.527 0 1.026.18 1.442.57v-.001zm-3.243-1.618.859.63a2.52 2.52 0 0 0-1.025.719c-.305.33-.527.719-.666 1.108l-.582-.928 1.414-1.529zm-7.123 13.274h6.707v2.097H8.682v-2.097zm6.097 8.09H9.292c-.333 0-.61-.3-.61-.66v-4.733h6.707v4.734c0 .36-.277.659-.61.659zm.61-8.69H8.682v-2.157h6.707v2.158-.001zm-6.707-2.756v-.66c0-.299.222-.538.499-.538h20.094c.277 0 .498.24.498.539v.66H8.682v-.001z" fill="#000"/><path d="M8.682 1305.278v-.66c0-.299.222-.538.499-.538h20.094c.277 0 .498.24.498.539v.66H8.682v-.001z" fill="#D8232A"/></g></g><g><path d="M4.4 1346H34v32H4.4z"/><g transform="translate(8.186 1351.303)"><path d="M7.38 12.266H2.821a.378.378 0 0 1-.274-.122l-.003-.003a.442.442 0 0 1-.112-.297V9.882h2.302c.315 0 .571-.276.571-.617 0-.341-.256-.618-.57-.618H2.431v-7.55C2.432.494 1.975 0 1.417 0 .86 0 .402.494.402 1.097v7.578a.614.614 0 0 0-.402.59c0 .278.17.512.402.59v1.99c0 1.433 1.094 2.616 2.42 2.616 1.524 0 3.037.004 4.558.004.56 0 1.017-.494 1.017-1.1 0-.604-.458-1.099-1.017-1.099z" stroke="#333" stroke-width=".629"/><circle fill="#333" fill-rule="nonzero" cx="2.366" cy="21.342" r="1"/><circle fill="#333" fill-rule="nonzero" cx="6.918" cy="21.342" r="1"/><circle fill="#333" fill-rule="nonzero" cx="4.691" cy="21.342" r="1"/><path d="M2.7 20.237a.298.298 0 0 0-.296.3.3.3 0 0 0 .296.3h3.884a.3.3 0 0 0 0-.6h-1.54V15.53h.886a.299.299 0 0 0 .296-.3c0-.165-.133-.3-.296-.3H3.354a.299.299 0 0 0-.296.3c0 .165.133.3.296.3h.886v4.707H2.7z" fill="#333" fill-rule="nonzero"/></g><path fill="#E4666C" fill-rule="nonzero" d="M12.232 1357.003h13.372v1.668H12.232z"/><g transform="matrix(-1 0 0 1 29.966 1350.988)" fill="#333" fill-rule="nonzero"><path d="M3.014 12.159c0 .03.01.056.027.074.02.021.044.032.071.032l4.56.001c.72 0 1.307.635 1.307 1.414 0 .779-.588 1.414-1.308 1.414l-1.91-.001-.368-.001c-1.138-.002-1.646-.002-2.28-.002-1.487 0-2.71-1.324-2.71-2.93v-1.792A.952.952 0 0 1 0 9.58c0-.328.157-.622.402-.79V1.413C.402.635.99 0 1.708 0c.72 0 1.306.635 1.306 1.412v7.235h2.01c.477 0 .863.418.863.932 0 .515-.386.932-.862.932h-2.01v1.648zm4.657.736H3.112a.66.66 0 0 1-.48-.214.774.774 0 0 1-.2-.522V9.882h2.593c.155 0 .28-.135.28-.303 0-.167-.125-.303-.28-.303H2.432V1.412c0-.43-.327-.783-.724-.783-.397 0-.724.353-.724.783v7.81L.78 9.29a.302.302 0 0 0-.197.29c0 .133.081.25.197.29l.205.068v2.222c0 1.259.964 2.3 2.13 2.3l2.65.003c.814.002 1.355.002 1.907.002.4 0 .726-.354.726-.784 0-.432-.327-.786-.726-.786z"/><circle cx="2.657" cy="21.657" r="1"/><circle cx="7.209" cy="21.657" r="1"/><circle cx="4.982" cy="21.657" r="1"/><path d="M2.991 20.552a.298.298 0 0 0-.296.3.3.3 0 0 0 .296.3h3.884a.299.299 0 0 0 .296-.3c0-.166-.134-.3-.296-.3h-1.54v-4.707h.886a.299.299 0 0 0 .296-.3c0-.165-.133-.3-.296-.3H3.645a.299.299 0 0 0-.296.3c0 .165.133.3.296.3h.886v4.706h-1.54v.001z"/></g></g><g><path d="M4.4 1402H34v32H4.4z"/><g fill-rule="nonzero"><path d="M29.602 1410.07v17.314l-.001.037c-.001.114.013-.044-.003.02-.007.029-.014.058-.024.087.025-.076-.001-.005-.01.014-.01.02-.053.082-.006.02a.698.698 0 0 1-.044.052c-.012.012-.092.072-.024.025a.97.97 0 0 1-.086.054c.088-.047-.134.025-.033.012a.558.558 0 0 1-.07.004h-.008c-.402.008-.805 0-1.207 0H10.523c-.462 0-.924.003-1.386 0h-.071c-.105-.002.041.014-.017-.004-.028-.008-.054-.015-.081-.025.065.025.014.007 0-.003a.654.654 0 0 1-.056-.037c.033.03.033.03 0-.001a2.77 2.77 0 0 0-.046-.05c-.064-.068.02.058-.019-.03-.01-.022-.022-.042-.032-.063.033.072.004.002-.002-.02-.007-.02-.018-.1-.01-.016l-.003-.076v-15.665c0-.544-.008-1.089 0-1.633v-.053c.005-.05.004-.05 0 0a.646.646 0 0 1 .012-.054c.007-.021.036-.092.003-.02.01-.021.022-.041.032-.063.038-.087-.045.038.019-.03l.046-.05c.063-.07-.054.021.028-.02.02-.01.038-.024.058-.034-.077.04.022-.004.034-.008.07-.03-.049-.007.034-.008.13-.002.258 0 .387 0h3.057l-.382-.413v1.082c0 .131-.006.264 0 .395.012.273.201.472.452.483.044.002.087 0 .13 0h1.199c.154 0 .333.022.472-.066.231-.146.221-.407.221-.653v-1.241l-.382.413h8.73c.403 0 .814.025 1.216 0h.017l-.382-.413v1.082c0 .131-.006.264 0 .395.012.274.201.472.452.483.043.002.087 0 .13 0h1.198c.155 0 .334.022.473-.065.23-.147.22-.408.22-.653v-1.242l-.381.413h3.444c.076.003.016.004 0 0 .02.005.142.056.068.016a.76.76 0 0 1 .085.054c-.054-.037.005.004.024.025.067.073.085.126.088.23.005.215.172.423.382.413a.405.405 0 0 0 .382-.413c-.015-.647-.488-1.147-1.086-1.152-.202-.002-.404 0-.606 0h-2.782c-.207 0-.382.189-.382.413v1.409c0 .06-.023.106.005-.006l.098-.183-.023.025.168-.106c.108-.031.056-.005-.001-.005h-1.44c-.058 0-.108-.026-.002.005l.169.106-.023-.025.098.183c.027.108.005.071.005.012v-1.416c0-.223-.175-.413-.382-.413h-8.73c-.405 0-.811-.014-1.216 0h-.016c-.207 0-.382.19-.382.413v1.41c0 .06-.024.105.004-.007l.099-.182-.023.025.168-.106c.108-.032.056-.006-.001-.006h-1.441c-.057 0-.108-.025-.001.006l.168.106-.022-.025.098.182c.027.109.005.072.005.013v-1.416c0-.223-.175-.413-.382-.413H9.375c-.182 0-.368-.011-.546.038-.472.131-.784.604-.793 1.12-.003.155 0 .31 0 .465v15.037c0 .591-.004 1.182 0 1.773.003.658.474 1.177 1.085 1.183h19.836c.113 0 .227.002.34 0 .48-.011.927-.358 1.037-.876.025-.116.032-.232.032-.35v-17.238c0-.216-.176-.423-.382-.413a.406.406 0 0 0-.382.414v-.001z" fill="#000"/><path d="M13.838 1407.944v2.839c0 .045-.018.04.004-.048l.099-.182-.023.025.168-.107c.108-.031.056-.005-.001-.005h-1.441c-.057 0-.108-.026-.001.005l.168.107-.022-.025.098.182c.03.118.005.06.005-.004v-2.761c-.002-.045.017-.04-.005.048l-.098.182.022-.024-.168.106c-.107.031-.056.005.001.005h1.441c.057 0 .108.026.001-.005l-.168-.106.023.024-.099-.182.009.035c.054.215.272.348.47.289.2-.06.32-.292.267-.508a.47.47 0 0 0-.446-.373c-.046-.002-.092 0-.138 0H12.82c-.155 0-.334-.022-.473.066-.3.19-.22.692-.22 1.01v1.375c0 .294-.014.592 0 .885.014.313.23.495.505.495h.495c.338 0 .682.02 1.02 0 .28-.016.454-.244.454-.538v-2.81c0-.216-.176-.423-.382-.413a.405.405 0 0 0-.382.413h.001zm11.672 0v2.839c.001.045-.017.04.005-.048l.098-.182-.023.025.169-.107c.107-.031.056-.005-.002-.005h-1.44c-.058 0-.108-.026-.001.005l.168.107-.023-.025.098.182c.03.118.005.06.005-.004v-2.761c0-.045.017-.04-.005.048l-.098.182.023-.024-.168.106c-.108.031-.056.005.001.005h1.44c.058 0 .108.026.002-.005l-.169-.106.023.024-.098-.182.008.035c.054.215.272.348.47.289.2-.06.321-.292.267-.508a.47.47 0 0 0-.445-.373c-.046-.002-.093 0-.139 0h-1.183c-.154 0-.333-.022-.472.066-.3.19-.221.692-.221 1.01v1.375c0 .294-.014.592 0 .885.014.313.23.495.506.495h.494c.338 0 .681.02 1.02 0 .28-.016.454-.244.454-.538v-2.81c0-.216-.176-.423-.382-.413a.405.405 0 0 0-.382.413zm1.11 11.976h-1.658c-.206 0-.382.189-.382.412v7.789l.382-.413H14.86c-.464 0-.937-.027-1.4 0h-.02l.381.413v-7.789c0-.223-.175-.413-.382-.413h-1.657c.064.02.129.038.193.057l-.018-.014.175.467.005-.023-.098.182.741-.69 1.77-1.645 2.15-2 1.852-1.722c.3-.28.62-.546.906-.843l.013-.011h-.54l1.298 1.207 1.946 1.81 1.116 1.039 1.245 1.157 1.786 1.661.04.037-.098-.182.005.023.175-.466-.018.013a.443.443 0 0 0-.137.565c.099.183.35.274.523.148l.018-.013a.443.443 0 0 0 .175-.467c-.037-.158-.126-.227-.23-.323l-.376-.35-1.043-.97-1.225-1.139-1.265-1.177-1.822-1.694c-.516-.48-1.028-.964-1.547-1.44-.01-.007-.018-.016-.027-.024-.165-.154-.373-.155-.54 0l-.747.695-1.792 1.666-2.15 2-1.857 1.727c-.29.27-.602.528-.878.817a.458.458 0 0 0-.111.212.442.442 0 0 0 .175.467c.123.09.283.07.424.07h1.446l-.382-.413v7.789c0 .223.175.413.382.413h10.1c.466 0 .934.015 1.4 0h.02c.207 0 .383-.19.383-.413v-7.789l-.382.413h1.657c.2 0 .391-.19.382-.413-.01-.224-.168-.414-.382-.414l.002.001z" fill="#000"/><path d="M20.783 1422.392v5.73l.382-.413h-3.929l.382.413v-5.592c0-.013.01-.13 0-.136v-.002c.07.004-.189.297-.198.213h.01c.019.009.056 0 .077 0h3.204c.08 0 .169.014.247 0 .003 0 .02.003.02 0h.004l-.1-.029c-.06-.033-.093-.118-.099-.184.018.214.163.423.382.413.192-.01.402-.183.382-.413-.03-.363-.26-.606-.599-.612-.096-.002-.193 0-.29 0h-1.153c-.688 0-1.379-.022-2.066 0-.325.01-.57.257-.585.613-.002.048 0 .098 0 .146v3.662c0 .629-.014 1.26 0 1.889v.031c0 .223.175.413.382.413h3.93c.206 0 .382-.19.382-.413v-5.73c0-.216-.176-.423-.382-.413a.406.406 0 0 0-.383.414z" fill="#D8232A"/><path d="M23.97 1414.982v3.193l.652-.292-1.599-1.487.112.292v-1.706l-.112.292.002-.002-.27.121h1.595l-.27-.12h.001a.367.367 0 0 0 .54 0 .443.443 0 0 0 0-.583c-.152-.165-.413-.123-.612-.123h-.78c-.156 0-.315-.01-.471 0-.234.016-.377.191-.387.439-.003.072 0 .145 0 .217 0 .478-.016.96 0 1.437.007.216.105.313.237.437l.503.467.97.903a.384.384 0 0 0 .652-.293v-3.193c0-.216-.175-.422-.382-.412a.406.406 0 0 0-.382.413h.001z" fill="#000"/></g></g><g><path d="M4.4 1458H34v32H4.4z"/><g fill-rule="nonzero"><path d="M28.08 1464.381h-3.33V1462h-1.11v2.381h-8.88V1462h-1.11v2.381h-3.33c-1.226 0-2.22 1.066-2.22 2.38v17.858c0 1.315.994 2.381 2.22 2.381h17.76c1.226 0 2.22-1.066 2.22-2.381v-17.857c0-1.315-.994-2.381-2.22-2.381zm1.11 20.238c0 .656-.498 1.19-1.11 1.19H10.32c-.612 0-1.11-.534-1.11-1.19v-11.905h19.98v11.905zm0-13.095H9.21v-4.762c0-.657.498-1.19 1.11-1.19h3.33v2.38h1.11v-2.38h8.88v2.38h1.11v-2.38h3.33c.612 0 1.11.533 1.11 1.19v4.762z" fill="#303030"/><path fill="#D8232A" d="m23.293 1475.59.785.842-6.531 6.997-3.897-4.18.785-.841 3.112 3.337z"/></g></g><g><path d="M4.4 1514H34v32H4.4z"/><g fill-rule="nonzero"><path d="M19.347 1524.16c.173.002.314-.149.315-.336 0-.186-.139-.339-.312-.34l-3.932-.045-1.576-.018h-.004c-.173-.001-.313.15-.314.336-.001.187.138.339.31.34l1.577.018c1.012.013 1.864.82 2.008 1.903l-3.603-.042h-.003a.309.309 0 0 0-.272.167.362.362 0 0 0-.002.339.31.31 0 0 0 .27.17l3.604.042c-.165 1.08-1.034 1.867-2.046 1.855l-1.576-.018h-.003a.314.314 0 0 0-.29.212.358.358 0 0 0 .072.37l3.9 4.07c.08.084.196.115.304.082a.328.328 0 0 0 .217-.243.357.357 0 0 0-.086-.325l-3.334-3.48.79.009c1.357.016 2.51-1.07 2.682-2.525l1.275.015h.004c.173.001.313-.15.314-.336.001-.187-.138-.34-.311-.34l-1.275-.015a2.97 2.97 0 0 0-.922-1.89l2.216.026h.003v-.001z" fill="#D8232A"/><path d="m30.833 1529.551-5.203-2.76c-.698-4.786-4.55-8.362-9.063-8.362-5.06 0-9.176 4.45-9.176 9.92s4.117 9.92 9.176 9.92a8.64 8.64 0 0 0 3.955-.967c.347.695.813 1.285 1.308 1.65l3.476 2.56a.294.294 0 0 0 .352 0l3.476-2.56c1.051-.774 1.875-2.456 1.875-3.83v-5.267a.342.342 0 0 0-.176-.304zm-22.816-1.202c0-5.097 3.836-9.243 8.55-9.243 4.224 0 7.827 3.361 8.454 7.85l-4.89 2.587a.342.342 0 0 0-.176.304v5.276a4.63 4.63 0 0 0 .303 1.566 8.05 8.05 0 0 1-3.691.904c-4.714 0-8.55-4.147-8.55-9.244zm22.366 6.774c0 1.133-.733 2.63-1.601 3.27l-3.3 2.43-3.3-2.43c-.475-.35-.926-.964-1.235-1.683-.236-.549-.366-1.112-.366-1.587v-5.065l4.901-2.592 4.9 2.6.001 5.057z" stroke="#000" stroke-width=".25" fill="#000"/><path d="M23.494 1533.754a.296.296 0 0 0-.44.009.358.358 0 0 0 .004.475l1.574 1.66a.296.296 0 0 0 .437 0l2.838-2.99a.357.357 0 0 0 .086-.327.327.327 0 0 0-.22-.243.297.297 0 0 0-.303.085l-2.619 2.761-1.357-1.43z" fill="#D8232A"/></g></g><g><path d="M4.4 1570H34v32H4.4z"/><g transform="translate(7.175 1574.733)"><ellipse fill="#E4666C" fill-rule="nonzero" cx="2.405" cy="1.3" rx="1.202" ry="1.3"/><path d="M1.603 5.2h1.603v17.333H1.603V5.2zm1.604 2.119c4.69 0 4.136-3.852 8.818-3.852v19.066H3.207V7.319zm2.945-.594v15.808m-2.945-2.645h8.818m-8.818-9.534h8.818M8.554 4.767l.003 17.766" stroke="#333" stroke-width=".607" stroke-linecap="round" stroke-linejoin="round"/><path stroke="#333" stroke-width=".607" stroke-linecap="round" stroke-linejoin="round" d="M0 2.6h4.81l-.962 2.6H.962z"/></g><g transform="matrix(-1 0 0 1 31.225 1574.733)"><ellipse fill="#E4666C" fill-rule="nonzero" cx="2.405" cy="1.3" rx="1.202" ry="1.3"/><path d="M1.603 5.2h1.603v17.333H1.603V5.2zm1.604 2.119c4.69 0 4.136-3.852 8.818-3.852v19.066H3.207V7.319zm2.945-.594v15.808m-2.945-2.645h8.818m-8.818-9.534h8.818M8.554 4.767l.003 17.766" stroke="#333" stroke-width=".607" stroke-linecap="round" stroke-linejoin="round"/><path stroke="#333" stroke-width=".607" stroke-linecap="round" stroke-linejoin="round" d="M0 2.6h4.81l-.962 2.6H.962z"/></g></g><g><path d="M4.4 1626H34v32H4.4z"/><g fill-rule="nonzero"><path d="M25.212 1629.788c.302 0 .547.264.547.59v1.38h4.008c.805 0 1.458.705 1.458 1.575v19.303c0 .87-.653 1.576-1.458 1.576H8.633c-.805 0-1.458-.705-1.458-1.576v-19.303c0-.87.653-1.575 1.458-1.575h4.008v-1.38c0-.326.245-.59.546-.59.302 0 .547.264.547.59v1.38h10.932v-1.38c0-.326.245-.59.547-.59h-.001zm4.92 8.273H8.268v14.575c0 .202.14.369.322.392l.043.002h21.134c.187 0 .341-.152.362-.348l.003-.046v-14.575zm-17.491-5.122H8.633c-.187 0-.341.152-.362.348l-.003.046v3.546h21.864v-3.546c0-.217-.163-.394-.365-.394H25.76v.985c0 .327-.245.591-.547.591-.301 0-.546-.264-.546-.59v-.986H13.734v.985c0 .327-.245.591-.547.591-.301 0-.546-.264-.546-.59v-.986z" fill="#000"/><path d="M23.208 1642.408v-.999c0-.307.217-.56.494-.588l.053-.003c.284 0 .518.235.544.534l.003.057v2.364c0 .307-.217.56-.494.588l-.053.003h-2.186c-.302 0-.547-.265-.547-.591 0-.307.217-.56.494-.588l.053-.003h.812c-1.147-1.569-3.295-2.062-4.93-1.041-1.79 1.117-2.434 3.715-1.4 5.65 1.033 1.935 3.436 2.631 5.226 1.514a.526.526 0 0 1 .747.216c.151.28.065.63-.2.807-2.313 1.444-5.385.554-6.72-1.946s-.512-5.821 1.8-7.265c2.098-1.31 4.82-.699 6.304 1.291z" fill="#D8232A"/></g></g><g><path d="M4.4 1682H34v32H4.4z"/><g fill-rule="nonzero"><path d="M22.652 1689.663c.498 0 .945.34 1.147.872l1.818 4.026c.017.026.03.054.039.084.432.436.7 1.069.7 1.766v4.015c0 .186-.14.337-.311.337h-.933v2.018c0 .186-.14.336-.312.336h-2.489c-.172 0-.31-.15-.31-.336v-2.018H16.4v2.018c0 .186-.14.336-.311.336h-2.49c-.171 0-.31-.15-.31-.336v-2.018h-.934c-.172 0-.311-.151-.311-.337v-4.015c0-.695.27-1.32.7-1.755a.35.35 0 0 1 .039-.095l1.838-4.057c.182-.5.63-.841 1.127-.841h6.904zm1.584 5.045H14.164c-.825 0-1.498.746-1.498 1.703v3.679h13.068v-3.679c0-.957-.673-1.703-1.498-1.703zm-1.584-4.373h-6.904c-.192 0-.496.23-.564.431a.356.356 0 0 1-.01.032l-1.497 3.3c.156-.04.32-.063.487-.063h10.072c.168 0 .33.022.487.063l-1.498-3.3a.356.356 0 0 1-.01-.032c-.067-.202-.371-.43-.563-.43v-.001z" fill="#333"/><path d="M13.6 1696.054v2.69h1.925c.661 0 1.186-.618 1.186-1.345s-.525-1.345-1.186-1.345H13.6zm9.275 0c-.661 0-1.186.618-1.186 1.345s.525 1.345 1.186 1.345H24.8v-2.69h-1.925z" fill="#E4666C"/><path d="M13.91 1700.763h1.868v1.681H13.91v-1.681zm8.712 0h1.867v1.681h-1.867v-1.681z" fill="#FFF"/><path d="M10.488 1685.29c-.856 0-1.555.756-1.555 1.682v18.836c0 .926.699 1.682 1.555 1.682h6.845v2.547h-1.867a.32.32 0 0 0-.29.182.36.36 0 0 0 .014.336c.06.101.165.16.276.155h7.468c.115 0 .22-.065.273-.167a.36.36 0 0 0 0-.34.307.307 0 0 0-.273-.166h-1.867v-2.547h6.845c.856 0 1.555-.756 1.555-1.682v-18.836c0-.926-.699-1.682-1.555-1.682H10.488zm0 .673h17.424c.522 0 .933.444.933 1.009v18.836c0 .565-.41 1.01-.933 1.01H10.488c-.522 0-.933-.445-.933-1.01v-18.836c0-.565.41-1.01.933-1.01v.001zm7.467 21.527h2.49v2.547h-2.49v-2.547z" fill="#333"/></g></g><g><path d="M4.4 1738H34v32H4.4z"/><path d="m24.107 1757.624.057-.043.08-.055 2.223-.049.08.049c.036.021.07.046.1.074.237.216.538.335.847.335.728 0 1.32-.646 1.32-1.44 0-.107-.01-.216-.033-.322a.708.708 0 0 1 .283-.732c.396-.265.631-.723.631-1.229 0-.505-.235-.962-.63-1.228a.706.706 0 0 1-.29-.69c.012-.08.018-.16.018-.237 0-.795-.593-1.44-1.32-1.44-.04 0-.083.002-.127.006-.313.032-.599-.19-.671-.52-.144-.65-.671-1.103-1.284-1.103-.615 0-1.142.454-1.285 1.106-.073.337-.368.561-.685.52a1.228 1.228 0 0 0-.155-.01c-.728 0-1.32.646-1.32 1.441 0 .083.006.169.02.255a.708.708 0 0 1-.276.69c-.378.269-.604.72-.604 1.21 0 .506.236.964.631 1.23a.709.709 0 0 1 .283.731 1.576 1.576 0 0 0-.033.322c0 .794.593 1.44 1.32 1.44.303 0 .584-.107.82-.31v-.001zm-.82 1.043c-1.102 0-1.997-.975-1.997-2.172 0-.15.014-.302.043-.45-.578-.402-.924-1.086-.924-1.833 0-.726.33-1.399.885-1.804a2.373 2.373 0 0 1-.026-.35c0-1.199.895-2.174 1.998-2.174.062 0 .125.004.191.01.228-.958 1.018-1.626 1.934-1.626.914 0 1.704.666 1.933 1.623.05-.004.1-.007.148-.007 1.103 0 1.998.975 1.998 2.173 0 .107-.007.215-.022.323.579.401.925 1.085.925 1.832 0 .748-.346 1.431-.925 1.833.03.148.044.3.044.45 0 1.197-.895 2.172-1.998 2.172a1.9 1.9 0 0 1-1.222-.453l-1.812.04c-.341.27-.746.413-1.172.413h-.001z" fill="#D8232A" fill-rule="nonzero"/><path d="m24.107 1757.624.057-.043.08-.055 2.223-.049.08.049c.036.021.07.046.1.074.237.216.538.335.847.335.728 0 1.32-.646 1.32-1.44 0-.107-.01-.216-.033-.322a.708.708 0 0 1 .283-.732c.396-.265.631-.723.631-1.229 0-.505-.235-.962-.63-1.228a.706.706 0 0 1-.29-.69c.012-.08.018-.16.018-.237 0-.795-.593-1.44-1.32-1.44-.04 0-.083.002-.127.006-.313.032-.599-.19-.671-.52-.144-.65-.671-1.103-1.284-1.103-.615 0-1.142.454-1.285 1.106-.073.337-.368.561-.685.52a1.228 1.228 0 0 0-.155-.01c-.728 0-1.32.646-1.32 1.441 0 .083.006.169.02.255a.708.708 0 0 1-.276.69c-.378.269-.604.72-.604 1.21 0 .506.236.964.631 1.23a.709.709 0 0 1 .283.731 1.576 1.576 0 0 0-.033.322c0 .794.593 1.44 1.32 1.44.303 0 .584-.107.82-.31v-.001z" fill="#F5F5F5" fill-rule="nonzero"/><path d="M16.389 1742.154c.383 0 .73.167.98.439.252.271.407.646.407 1.06v22.193H8.242v-22.192c0-.415.155-.79.406-1.061.252-.272.598-.44.982-.44h6.759v.001z" stroke="#303030"/><path d="M11.8 1748.614h2.418V1746H11.8v2.614zm3.095-3.346v4.078h-3.772v-4.078h3.772zm-3.095 10.039h2.418v-2.614H11.8v2.614zm3.095-3.346v4.078h-3.772v-4.078h3.772zM11.8 1762h2.418v-2.614H11.8V1762zm3.095-3.346v4.078h-3.772v-4.078h3.772z" fill="#303030" fill-rule="nonzero"/><path d="m17.776 1751.188 5.875 2.18a2.34 2.34 0 0 1 1.132.912c.273.414.43.919.43 1.453v10.113h-7.437v-14.658z" stroke="#303030" fill="#F5F5F5" fill-rule="nonzero"/></g><g><path d="M3 504h32v32H3z"/><g fill-rule="nonzero"><path d="M29.375 533.473c-.263 0-.438-.172-.438-.43 0-.257.175-.429.438-.429.962 0 1.75-.773 1.75-1.717V506.86H9.25v19.745c0 .258-.175.43-.438.43-.262 0-.437-.172-.437-.43V506.43c0-.257.175-.429.438-.429h22.75c.262 0 .437.172.437.43v24.467c0 1.417-1.181 2.576-2.625 2.576v-.001z" stroke="#303030" stroke-width=".3" fill="#000"/><path d="M6.625 533.473c-1.444 0-2.625-1.16-2.625-2.576v-8.156c0-.257.175-.43.438-.43h4.375c.262 0 .437.173.437.43v8.156c0 1.417-1.181 2.576-2.625 2.576zm-1.75-10.303v7.727c0 .944.788 1.717 1.75 1.717s1.75-.773 1.75-1.717v-7.727h-3.5z" stroke="#303030" stroke-width=".3" fill="#000"/><path d="M29.375 533.473H6.625c-.262 0-.438-.172-.438-.43 0-.257.175-.429.438-.429h22.75c.263 0 .438.172.438.43 0 .257-.175.429-.438.429z" stroke="#303030" stroke-width=".3" fill="#000"/><g fill="#D8232A"><path d="M22.856 520.595H17.52c-1.225 0-2.188-.945-2.188-2.146v-4.937c0-.257.175-.43.438-.43.262 0 .437.173.437.43v4.937c0 .73.569 1.287 1.313 1.287h5.293c.744 0 1.313-.558 1.313-1.287v-4.937c0-.257.175-.43.437-.43.263 0 .438.173.438.43v4.937c.044 1.201-.963 2.146-2.144 2.146h-.001z"/><path d="M25.437 514.628a.475.475 0 0 1-.262-.086l-4.988-4.12-4.987 4.077c-.175.172-.481.13-.613-.043-.175-.171-.13-.472.044-.6l5.25-4.336a.467.467 0 0 1 .569 0l5.25 4.335c.175.172.219.43.044.601a.37.37 0 0 1-.307.172zm-3.937 5.967h-2.625c-.263 0-.438-.172-.438-.43v-3.004c0-.945.788-1.717 1.75-1.717.963 0 1.75.772 1.75 1.717v3.005c0 .257-.175.429-.437.429zm-2.188-.859h1.75v-2.575a.87.87 0 0 0-.875-.859.87.87 0 0 0-.875.859v2.575z"/></g><path d="M27.188 524.029h-14c-.263 0-.438-.172-.438-.43 0-.257.175-.429.438-.429h14c.262 0 .437.172.437.43 0 .257-.175.429-.438.429h.001zm0 3.005h-14c-.263 0-.438-.172-.438-.43 0-.257.175-.429.438-.429h14c.262 0 .437.172.437.43 0 .257-.175.429-.438.429h.001zm0 3.005h-14c-.263 0-.438-.172-.438-.43 0-.257.175-.429.438-.429h14c.262 0 .437.172.437.43 0 .257-.175.429-.438.429h.001z" fill="#000"/></g></g><g><path d="M4 112h32v32H4z"/><path d="M27.077 116.615a5.895 5.895 0 0 1 3.332.98c1.094.74 1.982 2.003 2.03 3.815.05 1.878-.706 3.217-1.726 4.032a5.303 5.303 0 0 1-1.9.955l.002 9.265a.467.467 0 0 1 .012.113v2.824a.469.469 0 0 1-.937 0l.002-2.351c-.68.005-1.366.009-2.055.012l.001.023v2.316a.469.469 0 0 1-.937 0v-2.336c-.678.003-1.364.005-2.051.006v2.33a.469.469 0 0 1-.938 0v-2.329l-2.052.002v2.327a.469.469 0 0 1-.938 0v-2.329h-2.054l.003.013v2.316a.469.469 0 0 1-.938 0v-2.331h-2.058l.003.015v2.316a.467.467 0 0 1-.712.438.467.467 0 0 1-.222-.438v-2.334h-2.06l.002 2.334a.467.467 0 0 1-.152.385l-.07.053a.47.47 0 0 1-.712-.438v-15.801c0-.02 0-.04.002-.06l.004.083c-.108-2.302 1.195-4.534 3.37-5.577a6.102 6.102 0 0 1 2.987-.58l.044-.01.083-.008 10.635-.031zm-13.313 1.452c-1.822.875-2.943 2.763-2.852 4.707a.437.437 0 0 1-.025.222l-.001 12.334c5.59 0 11.44.018 16.99-.02v-8.736a5.438 5.438 0 0 1-.44.028l-.02.004-.087.003-10.735.27a.47.47 0 0 1-.12-.013c-1.688-.069-3.308-.957-4.082-2.508-.99-1.986-.186-4.503 1.965-5.452l.016-.007.017-.007a.462.462 0 0 1 .442.806l-.073.04c-1.641.724-2.265 2.687-1.496 4.228.611 1.225 1.91 1.932 3.262 1.983l.048-.006.532-.012c.437-.044.871-.16 1.28-.35 2.122-.984 2.911-3.548 1.874-5.545-1.17-2.252-4.163-3.087-6.495-1.969zm13.327-.517h-.01l-7.873.022a5.315 5.315 0 0 1 1.915 2.056 4.967 4.967 0 0 1-1.416 6.238l7.602-.19.03-.001a.67.67 0 0 1 .084-.008c.812-.02 1.884-.303 2.702-.957.818-.653 1.42-1.65 1.377-3.276-.041-1.53-.726-2.458-1.62-3.062-.893-.605-2.02-.841-2.791-.822z" stroke="#F5F5F5" stroke-width=".2" fill="#000" fill-rule="nonzero"/><path d="M21.123 119.628c1.268 2.44.302 5.56-2.318 6.777-2.32 1.078-5.278.23-6.413-2.047-.99-1.986-.186-4.503 1.965-5.452l.033-.014a.462.462 0 0 1 .37.846c-1.642.724-2.266 2.687-1.497 4.228.896 1.796 3.268 2.477 5.122 1.616 2.122-.985 2.911-3.55 1.874-5.546-1.17-2.252-4.163-3.087-6.495-1.969-1.822.875-2.943 2.763-2.852 4.707a.449.449 0 0 1-.203.44.499.499 0 0 1-.502.025.454.454 0 0 1-.25-.418c-.107-2.302 1.196-4.534 3.372-5.577 1.398-.67 2.994-.753 4.415-.33 1.42.423 2.672 1.352 3.38 2.714h-.001z" stroke="#FFF" stroke-width=".2" fill="#D8232A" fill-rule="nonzero"/></g><g><path d="M4 892h32v28.803H4z"/><path d="M4 892h32v32H4z"/><g fill-rule="nonzero"><path d="m34.779 905.862-14.017-8.786a.488.488 0 0 0-.522 0l-14.017 8.786a.461.461 0 0 0-.145.65c.15.216.443.277.667.14L20.5 898.03l13.756 8.619a.49.49 0 0 0 .667-.14.46.46 0 0 0-.145-.646l.001-.001zm-24.45 2.21h-.145c-1.375.056-2.517 1.144-2.599 2.473-.046.74.215 1.44.731 1.98.4.414.934.689 1.502.79v3.364c0 1.049.882 1.907 1.96 1.907h17.44c1.078 0 1.96-.853 1.96-1.907v-3.364c.57-.1 1.096-.376 1.501-.79.522-.54.783-1.24.731-1.98-.087-1.33-1.23-2.417-2.598-2.473h-.145a2.605 2.605 0 0 0-2.586 2.59v2.513c0 .504-.424.914-.94.914H13.855c-.517 0-.94-.41-.94-.914v-2.513c0-1.413-1.16-2.573-2.586-2.59zm3.526 6.953h13.292c1.05 0 1.908-.83 1.908-1.85v-2.513c0-.902.73-1.643 1.63-1.648h.092c.888.033 1.624.734 1.676 1.592.03.477-.139.931-.47 1.279a1.761 1.761 0 0 1-1.281.538.477.477 0 0 0-.481.471v3.79c0 .533-.447.965-.992.965H11.784c-.55 0-.997-.432-.997-.964v-3.79a.477.477 0 0 0-.482-.472c-.487 0-.945-.19-1.281-.538a1.674 1.674 0 0 1-.476-1.279c.052-.858.789-1.559 1.676-1.592h.093c.899.005 1.63.746 1.63 1.648v2.513c0 1.014.858 1.85 1.908 1.85z" fill="#000"/><path d="M26.109 912.732a.802.802 0 0 0 .812-.791v-7.755a.802.802 0 0 0-.812-.79H14.893a.802.802 0 0 0-.812.79v7.755c0 .437.365.79.812.79h11.216v.001zm-11.066-8.395h10.915v3.258H15.043v-3.258zm0 4.195h10.915v3.258H15.043v-3.258z" fill="#D8232A"/></g></g></g></svg>